{"title":"PIXIES - 2016-07-07 - NOS Alive! HDTV 1080i","uid":15327290,"size":11335066507,"categoryP":"video","categoryS":"music_videos","magnet":"?xt=urn:btih:0e077bb1c2aabc223cf17d4274a5462ab30add73&amp;dn=PIXIES+-+2016-07-07+-+NOS+Alive%21+HDTV+1080i&amp;tr=udp%3A%2F%2Ftracker.leechers-paradise.org%3A6969&amp;tr=udp%3A%2F%2Fzer0day.ch%3A1337&amp;tr=udp%3A%2F%2Fopen.demonii.com%3A1337&amp;tr=udp%3A%2F%2Ftracker.coppersurfer.tk%3A6969&amp;tr=udp%3A%2F%2Fexodus.desync.com%3A6969","seeders":6,"leechers":3,"uploader":"GRNS3","files":3,"time":1468705660,"description":"Here is a very nice 1080i broadcast. Check my account for more classic broadcasts.\r\n\r\nPlease enjoy, share with friends and please seed :)\r\n\r\nPixies \r\nNOS Alive! \r\nOeiras, Lisboa, Portugal \r\nJuly 07, 2016 \r\n\r\nLineage: NOS Box -&gt; Avermedia Game Capture II (Sharemania.us) \r\nVideo: MPEG4 Video (H264), 1920x1080, 15000 kb/s, 50.00 fps \r\nAudio: AAC 128 kbps 48.0 KHz stereo \r\n\r\n\r\nSetlist:\r\n\r\n1. Bone Machine\r\n2. Head On (The Jesus and Mary Chain cover)\r\n3. Wave of Mutilation\r\n4. Subbacultcha\r\n5. Distance Equals Rate Times Time\r\n6. Head Carrier\r\n7. Velouria\r\n8. Indie Cindy\r\n9. Um Chagga Lagga\r\n10. Monkey Gone to Heaven\r\n11. Classic Masher\r\n12. Levitate Me\r\n13. Dead\r\n14. vGouge Away\r\n15. Baal's Back\r\n16. Snakes\r\n17. I Bleed\r\n18. Broken Face\r\n19. Greens and Blues\r\n20. Brick Is Red\r\n21. Tony's Theme\r\n22. I've Been Tired\r\n23. Tame\r\n24. Where Is My Mind?\r\n25. Here Comes Your Man\r\n26. Vamos\r\n27. Caribou\r\n28. Debaser\r\n29. Rock Music\r\n\r\nGeneral\r\nComplete name : C:Pixies [Live @ NOS Alive Lisboa 7-July-2016] (RTPFestivaisHD-1080i)-HDMania.mp4\r\nFormat : MPEG-4\r\nFormat profile : Base Media\r\nCodec ID : isom (isom/iso2/avc1/mp41)\r\nFile size : 10.6 GiB\r\nDuration : 1h 39mn\r\nOverall bit rate mode : Variable\r\nOverall bit rate : 15.1 Mbps\r\nDescription : AverMedia_c285_001.001.009\r\nEncoded date : UTC 1970-01-01 00:00:00\r\nTagged date : UTC 1970-01-01 00:00:00\r\nWriting application : Lavf53.3.0\r\nComment : Quality_BEST\r\n\r\nVideo\r\nID : 1\r\nFormat : AVC\r\nFormat/Info : Advanced Video Codec\r\nFormat profile :   \r\nFormat settings, CABAC : Yes\r\nFormat settings, ReFrames : 2 frames\r\nCodec ID : avc1\r\nCodec ID/Info : Advanced Video Coding\r\nDuration : 1h 39mn\r\nBit rate : 15.0 Mbps\r\nWidth : 1 920 pixels\r\nHeight : 1 080 pixels\r\nDisplay aspect ratio : 16:9\r\nFrame rate mode : Constant\r\nFrame rate : 50.000 fps\r\nColor space : YUV\r\nChroma subsampling : 4:2:0\r\nBit depth : 8 bits\r\nScan type : Interlaced\r\nScan type, store method : Separated fields\r\nScan order : Top Field First\r\nBits/(Pixel*Frame) : 0.145\r\nStream size : 10.5 GiB (99%)\r\nEncoded date : UTC 1970-01-01 00:00:00\r\nTagged date : UTC 1970-01-01 00:00:00\r\n\r\nAudio\r\nID : 2\r\nFormat : AAC\r\nFormat/Info : Advanced Audio Codec\r\nFormat profile : LC\r\nCodec ID : 40\r\nDuration : 1h 39mn\r\nBit rate mode : Variable\r\nBit rate : 128 Kbps\r\nChannel(s) : 2 channels\r\nChannel positions : Front: L R\r\nSampling rate : 48.0 KHz\r\nFrame rate : 46.875 fps (1024 spf)\r\nCompression mode : Lossy\r\nStream size : 91.4 MiB (1%)\r\nDefault : Yes\r\nAlternate group : 1\r\nEncoded date : UTC 1970-01-01 00:00:00\r\nTagged date : UTC 1970-01-01 00:00:00","torrent":{"xt":"urn:btih:0e077bb1c2aabc223cf17d4274a5462ab30add73","amp;dn":"PIXIES+-+2016-07-07+-+NOS+Alive%21+HDTV+1080i","amp;tr":["udp%3A%2F%2Ftracker.leechers-paradise.org%3A6969","udp%3A%2F%2Fzer0day.ch%3A1337","udp%3A%2F%2Fopen.demonii.com%3A1337","udp%3A%2F%2Ftracker.coppersurfer.tk%3A6969","udp%3A%2F%2Fexodus.desync.com%3A6969"],"infoHash":"0e077bb1c2aabc223cf17d4274a5462ab30add73","infoHashBuffer":{"type":"Buffer","data":[14,7,123,177,194,170,188,34,60,241,125,66,116,165,70,42,179,10,221,115]},"announce":[],"urlList":[]}}